<svg xmlns="http://www.w3.org/2000/svg" width="219.477" height="119.095" viewBox="0 0 219.477 119.095">
  <g id="Layer_x0020_1" transform="translate(-0.04 0.04)">
    <g id="_2063930351072" transform="translate(0.04 -0.04)">
      <g id="Group_165" data-name="Group 165">
        <path id="Path_145" data-name="Path 145" d="M63.819,96.525c-32.234,0-50.83-29.617-50.83-55.652C12.989,20.486,24.422,2.3,49.631,2.3c4.712,0,13.511,1.678,17.131,7.836V1.493a52.936,52.936,0,0,0-13-1.533C25.111-.04.04,17.179.04,49.413c0,25.071,18.872,50.28,56.754,50.28,21.765,0,32.647-8.678,39.948-22.453C89.028,88.122,78.559,96.525,63.819,96.525Z" transform="translate(-0.04 0.04)" fill="#e31e24" fill-rule="evenodd"/>
        <path id="Path_146" data-name="Path 146" d="M18465.9,235.085a20.762,20.762,0,0,0,11.156-3.663s-.01-.931-.549-1.1c-2.49-.792-8.4-9.367-8.4-28.928v-44.64l67.055,72.128a11.806,11.806,0,0,0,7.754,2.813c2.834-.434,4.877-1.1,4.92-6.428V206.688c.031-6.592,1.324-10.309,4.318-13.489l54.088-50.773H18592.6s3.166,7.577-8.955,18.734l-35.814,32.648v-40.53c0-1.627.129-5.527-4.545-5.947-3-.27-6.453.155-8.129,1.275v53.75c.172,4.26-1.928,5.588-4.963,2.776l-58.514-62.2c-2.225-2.258-5.783-1.358-5.783,2.422v89.732Zm94.742-49.267c21.352,4.132,20.387,54.412,48.488,54.412a28.083,28.083,0,0,0,8.4-1.377c-19.146,2.342-18.459-55.652-56.893-53.035Z" transform="translate(-18398.057 -141.187)" fill="#e31e24" fill-rule="evenodd"/>
      </g>
      <path id="Path_147" data-name="Path 147" d="M39720.406,26374.582c-6.82,0-10.746-6.258-10.746-11.762,0-4.312,2.418-8.152,7.746-8.152,2.121,0,4.629,1.395,4.629,3.871a1.466,1.466,0,0,0,1.863-1.484c0-1.285-1.434-2.883-5.621-2.883-6.055,0-11.355,3.641-11.355,10.453,0,5.3,3.988,10.629,12,10.629,2.535,0,3.9-.523,4.891-1.488l2.535,1.051v-10.309h-9.727v.406h7.16v8.418A4.328,4.328,0,0,1,39720.406,26374.582Zm10.566-14.324v14.559h2.508v-12.328A2.8,2.8,0,0,0,39730.973,26360.258Zm13.16.113c2.914,0,4.8,3.031,5.355,6.262v8.184H39752v-21.84h-2.512v9.113a6.063,6.063,0,0,0-5.117-2.152c-4.891,0-7,3.813-7,7.656,0,3.816,2.074,7.66,7,7.66,2.469,0,4.074-.934,4.742-2.621a3.876,3.876,0,0,1-3.727,1.891c-3.348,0-5.273-4.309-5.273-8.18C39740.113,26363.2,39741.367,26360.371,39744.133,26360.371Zm22.652,11.855a2.491,2.491,0,0,0,2.566,2.766,3.29,3.29,0,0,0,2.824-1.605,2.8,2.8,0,0,1-1.75.934c-.664,0-1.164-.582-1.164-2.184v-4.512c0-4.105-.875-7.687-6.465-7.687a5.7,5.7,0,0,0-5.559,4.223,5.48,5.48,0,0,1,5.477-3.668c4.1,0,4.07,3.492,4.07,7.133v.7a6.315,6.315,0,0,0-5.152-2.359c-4.25,0-6.117,2.445-6.117,4.8a4.292,4.292,0,0,0,4.4,4.363,9.045,9.045,0,0,0,6.52-3.492c-2.152,1.777-3.84,2.477-5.121,2.477a3.446,3.446,0,0,1-3.348-3.7c0-2.008,1.363-4.074,4.453-4.074a5.347,5.347,0,0,1,4.363,2.359Zm-9.547-8.066c0,.055-.027.113-.027.172C39757.211,26364.273,39757.238,26364.215,39757.238,26364.16Z" transform="translate(-39561.047 -26256.158)" fill="#e31e24"/>
    </g>
  </g>
</svg>
