<svg xmlns="http://www.w3.org/2000/svg" width="65.535" height="28.936" viewBox="0 0 65.535 28.936">
  <g id="Group_41" data-name="Group 41" transform="translate(-3175.306 -6261.988)">
    <path id="Path_91" data-name="Path 91" d="M520.2,190.956l1.831-2.2a6.565,6.565,0,0,0,4.218,1.728c1.276,0,2.037-.514,2.037-1.337V189.1c0-.782-.473-1.193-2.84-1.79-2.86-.72-4.691-1.523-4.691-4.321v-.041c0-2.572,2.058-4.259,4.959-4.259a8.078,8.078,0,0,1,5.247,1.79l-1.626,2.346a6.659,6.659,0,0,0-3.683-1.4c-1.193,0-1.811.556-1.811,1.235v.041c0,.926.6,1.235,3.045,1.852,2.86.741,4.486,1.77,4.486,4.239v.041c0,2.819-2.14,4.383-5.185,4.383A9.111,9.111,0,0,1,520.2,190.956Z" transform="translate(2682.986 6085.73)" fill="#fff"/>
    <path id="Path_92" data-name="Path 92" d="M582.1,190.956l1.831-2.2a6.565,6.565,0,0,0,4.218,1.728c1.276,0,2.037-.514,2.037-1.337V189.1c0-.782-.473-1.193-2.84-1.79-2.86-.72-4.691-1.523-4.691-4.321v-.041c0-2.572,2.058-4.259,4.959-4.259a8.078,8.078,0,0,1,5.247,1.79l-1.626,2.346a6.66,6.66,0,0,0-3.683-1.4c-1.193,0-1.811.556-1.811,1.235v.041c0,.926.6,1.235,3.045,1.852,2.86.741,4.486,1.77,4.486,4.239v.041c0,2.819-2.14,4.383-5.185,4.383A9.071,9.071,0,0,1,582.1,190.956Z" transform="translate(2633.823 6085.73)" fill="#fff"/>
    <path id="Path_93" data-name="Path 93" d="M649.7,179.5h3.107v11.317h7.058v2.84H649.7Z" transform="translate(2580.133 6085.088)" fill="#fff"/>
    <path id="Path_94" data-name="Path 94" d="M518.4,264.747l.7-.844a2.54,2.54,0,0,0,1.626.658c.494,0,.782-.185.782-.514v-.021c0-.309-.185-.453-1.091-.7-1.091-.288-1.811-.576-1.811-1.667v-.021a1.674,1.674,0,0,1,1.749-1.646.35.35,0,0,1,.144.021,3.015,3.015,0,0,1,2.017.7l-.617.905a2.567,2.567,0,0,0-1.42-.535c-.453,0-.7.206-.7.473v.021c0,.35.226.473,1.173.72,1.111.288,1.728.679,1.728,1.626v.021c0,1.091-.823,1.687-2,1.687A3.641,3.641,0,0,1,518.4,264.747Z" transform="translate(2684.416 6021.158)" fill="#fff"/>
    <path id="Path_95" data-name="Path 95" d="M544.4,260.5h4.095v1.07h-2.922v1.111h2.572v1.07h-2.572V264.9h2.963v1.07H544.4Z" transform="translate(2663.766 6020.755)" fill="#fff"/>
    <path id="Path_96" data-name="Path 96" d="M568.6,262.825h0a2.794,2.794,0,0,1,2.716-2.84h.123a2.778,2.778,0,0,1,2.14.844l-.761.885a2.09,2.09,0,0,0-1.4-.617,1.625,1.625,0,0,0-1.584,1.646v.062a1.627,1.627,0,0,0,1.523,1.708h.062a1.951,1.951,0,0,0,1.44-.638l.761.761a2.73,2.73,0,0,1-2.222.967,2.767,2.767,0,0,1-2.8-2.7Z" transform="translate(2644.546 6021.166)" fill="#fff"/>
    <path id="Path_97" data-name="Path 97" d="M597.121,263.607V260.5h1.193v3.066c0,.885.453,1.337,1.173,1.337s1.173-.453,1.173-1.3V260.5h1.193v3.066a2.2,2.2,0,0,1-1.893,2.449,1.983,1.983,0,0,1-.494,0,2.153,2.153,0,0,1-2.366-1.934A3.8,3.8,0,0,1,597.121,263.607Z" transform="translate(2621.909 6020.755)" fill="#fff"/>
    <path id="Path_98" data-name="Path 98" d="M626.2,260.48h2.49a2.148,2.148,0,0,1,1.584.556,1.723,1.723,0,0,1,.473,1.235v.021a1.663,1.663,0,0,1-1.173,1.687l1.337,1.934h-1.4l-1.173-1.749h-.946v1.749H626.2Zm2.407,2.654c.576,0,.926-.309.926-.761v-.021c0-.514-.35-.782-.947-.782h-1.193v1.564Z" transform="translate(2598.797 6020.775)" fill="#fff"/>
    <path id="Path_99" data-name="Path 99" d="M653.6,260.5h4.095v1.07h-2.922v1.111h2.572v1.07h-2.572V264.9h2.963v1.07H653.6Z" transform="translate(2577.035 6020.755)" fill="#fff"/>
    <path id="Path_100" data-name="Path 100" d="M678.9,260.475h2.119a2.7,2.7,0,0,1,2.881,2.531v.206a2.744,2.744,0,0,1-2.716,2.737H678.9Zm2.119,4.362a1.562,1.562,0,0,0,1.646-1.461v-.185a1.566,1.566,0,0,0-1.482-1.646h-1.091v3.272Z" transform="translate(2556.941 6020.78)" fill="#fff"/>
    <g id="Group_40" data-name="Group 40" transform="translate(3175.306 6261.988)">
      <path id="Path_101" data-name="Path 101" d="M313.414,146.7c0,8.312,8.106,12.53,11.582,13.959l.124.055a.932.932,0,0,0,.811,0l.124-.055c3.49-1.429,11.582-5.647,11.582-13.959V135.574a.913.913,0,0,0-.7-.893l-11.2-2.775a.8.8,0,0,0-.44,0l-11.2,2.775a.913.913,0,0,0-.7.893M335.809,146.7c0,7.076-7.048,10.841-10.263,12.187-3.229-1.346-10.263-5.111-10.263-12.187V136.289l10.263-2.542,10.263,2.542Z" transform="translate(-313.4 -131.875)" fill="#fff"/>
      <path id="Path_102" data-name="Path 102" d="M370.187,172.5a3.741,3.741,0,0,0-3.737,3.737v.921a1.489,1.489,0,0,0-1.25,1.47v6.54a1.5,1.5,0,0,0,1.5,1.5h7.076a1.5,1.5,0,0,0,1.5-1.5v-6.54a1.51,1.51,0,0,0-1.319-1.484v-.921A3.78,3.78,0,0,0,370.187,172.5Zm0,1.621a2.117,2.117,0,0,1,2.116,2.116v.893h-4.218v-.893A2.1,2.1,0,0,1,370.187,174.121Zm3.435,10.909h-6.8v-6.265h6.8Zm-2.116-5.166,1.127,1.127-1.7,1.7-1.127,1.127-1.127-1.127-.866-.866,1.127-1.127.866.866Z" transform="translate(-358.083 -166.918)" fill="#fff"/>
    </g>
  </g>
</svg>
